# xmcd CD database file
#
# Track frame offsets:
#	182
#	27332
#	52282
#	67475
#	91082
#	113995
#	146440
#	167312
#	183557
#	208982
#
# Disc length: 3391 seconds
#
# Revision: 0
# Processed by: cddbd v1.5.2PL0 Copyright (c) Steve Scherf et al.
# Submitted via: CDex 1.70beta2
#
DISCID=970d3d0a
DTITLE=Adam Rudolph - Skyway
DYEAR=1994
DGENRE=Jazz
TTITLE0=Oshogbo
TTITLE1=Beloved
TTITLE2=Terra Incognita
TTITLE3=The Earth Spins Faster Than Words
TTITLE4=Impulsion
TTITLE5=Dreaming Of The Skyway
TTITLE6=Baraka
TTITLE7=The Other Mind
TTITLE8=Ourobouros
TTITLE9=Savannah
EXTD=YEAR: 1994
EXTT0=
EXTT1=
EXTT2=
EXTT3=
EXTT4=
EXTT5=
EXTT6=
EXTT7=
EXTT8=
EXTT9=
PLAYORDER=
